<?xml version="1.0" standalone="no"?>
<!DOCTYPE svg PUBLIC "-//W3C//DTD SVG 20010904//EN"
 "http://www.w3.org/TR/2001/REC-SVG-20010904/DTD/svg10.dtd">
<svg version="1.0" xmlns="http://www.w3.org/2000/svg"
 width="1344.000000pt" height="1344.000000pt" viewBox="0 0 1344.000000 1344.000000"
 preserveAspectRatio="xMidYMid meet">
<metadata>
Created by potrace 1.11, written by Peter Selinger 2001-2013
</metadata>
<g transform="translate(0.000000,1344.000000) scale(0.100000,-0.100000)"
fill="#000000" stroke="none">
<path d="M549 9216 c-1 -1 -2 -1210 -3 -2688 l-1 -2688 406 0 406 0 1 45 c1
25 4 50 7 55 4 6 2 10 -2 10 -5 0 -6 25 -3 55 3 30 3 55 0 55 -3 0 -4 17 -3
38 6 96 6 182 0 188 -3 4 -2 15 4 25 5 11 6 19 2 19 -7 0 -8 101 -3 215 1 11
0 57 0 102 -1 45 1 87 5 92 3 6 2 11 -2 11 -5 0 -6 25 -3 55 3 30 4 55 1 55
-4 0 -6 56 -6 125 0 69 3 125 7 125 4 0 4 10 -1 22 -4 12 -5 39 -1 60 4 21 4
38 1 38 -4 0 -4 25 -1 55 3 30 4 55 1 55 -5 0 -5 46 -1 165 1 11 0 57 0 102
-1 45 1 87 5 92 3 6 3 11 -2 11 -8 0 -7 234 1 257 3 7 2 13 -2 13 -4 0 -7 15
-5 33 2 47 3 92 3 185 0 46 2 88 6 93 3 5 2 9 -3 9 -8 0 -7 284 1 307 3 7 2
13 -2 13 -4 0 -7 15 -5 33 2 47 3 92 3 185 0 46 2 88 6 93 3 5 2 9 -3 9 -9 0
-8 164 2 179 3 6 3 11 -2 11 -8 0 -7 95 2 118 2 7 0 10 -5 7 -6 -4 -7 2 -1 18
6 14 7 28 4 31 -8 8 -6 143 2 156 4 6 3 10 -2 10 -6 0 -9 112 -2 130 1 3 0 10
-1 15 -4 16 -2 166 2 170 2 2 31 -49 64 -113 33 -64 98 -189 144 -277 106
-205 193 -373 313 -605 182 -355 195 -378 203 -391 5 -8 9 -16 9 -19 1 -6 56
-113 100 -195 18 -33 83 -159 145 -280 62 -121 136 -265 165 -320 29 -55 90
-172 135 -260 45 -88 87 -166 92 -172 6 -7 7 -13 3 -13 -4 0 -3 -6 3 -12 10
-13 73 -134 198 -378 38 -74 70 -137 71 -138 1 -3 363 -5 578 -3 l60 1 18 40
c9 22 17 45 17 50 0 6 4 10 8 10 5 0 24 33 43 73 19 39 36 74 39 77 3 3 44 82
91 175 157 313 321 630 330 640 5 5 9 17 9 26 0 10 3 19 8 21 4 2 42 73 86
158 86 170 230 451 366 715 87 169 259 505 405 790 42 83 80 154 86 159 5 6 9
16 9 23 0 8 4 19 10 26 5 7 30 53 56 102 25 50 49 93 52 97 4 4 7 -884 7
-1973 l-1 -1979 406 2 405 3 0 2685 0 2685 -479 0 -479 0 -155 -305 c-205
-404 -262 -519 -262 -530 0 -4 -3 -10 -7 -12 -5 -1 -76 -138 -159 -303 -84
-165 -236 -466 -339 -670 -104 -203 -195 -383 -202 -400 -8 -16 -18 -37 -22
-45 -5 -8 -73 -143 -152 -300 -79 -157 -146 -287 -149 -290 -3 -3 -6 -12 -8
-20 -2 -8 -8 -16 -13 -18 -5 -2 -9 -11 -9 -21 0 -9 -4 -21 -9 -27 -5 -5 -80
-150 -167 -322 -140 -278 -160 -311 -168 -290 -6 12 -13 25 -16 28 -3 3 -52
100 -110 215 -58 116 -107 212 -110 215 -3 3 -59 113 -125 245 -66 132 -132
261 -147 288 -15 26 -25 47 -22 47 4 0 2 6 -4 13 -5 6 -70 131 -145 277 -74
146 -200 393 -279 550 -80 157 -214 420 -298 585 -84 165 -225 442 -313 615
-88 173 -178 351 -200 395 l-39 81 -479 0 c-263 0 -480 0 -480 0z"/>
<path d="M9495 6528 l0 -2689 1175 4 c646 2 1191 7 1210 10 19 3 58 8 85 11
28 4 61 9 75 11 14 3 36 8 50 10 14 3 39 8 55 11 28 5 121 29 155 40 8 3 16 5
17 5 2 0 18 6 38 15 19 8 38 15 42 15 51 8 358 171 393 209 3 3 28 23 55 45
56 44 205 194 205 206 0 4 6 14 14 22 17 17 72 103 111 172 64 116 139 344
150 455 2 25 7 61 9 80 8 51 8 227 1 290 -8 64 -10 77 -25 145 -5 28 -13 61
-16 75 -18 88 -98 261 -170 370 -71 106 -75 111 -164 200 -181 181 -366 290
-594 350 l-89 24 79 26 c102 34 116 40 134 51 15 9 77 37 85 39 5 1 131 83
164 107 78 57 241 211 241 228 0 6 9 17 20 25 11 8 20 18 20 23 0 5 13 27 28
50 51 76 94 178 127 308 18 68 21 81 32 169 9 72 9 332 0 395 -10 73 -37 191
-51 230 -90 239 -157 347 -315 506 -112 111 -209 182 -341 249 -100 50 -294
120 -370 134 -14 2 -59 11 -100 19 -41 8 -104 18 -140 22 -36 4 -78 9 -95 12
-16 2 -541 6 -1165 7 l-1135 2 0 -2688z m2100 2018 c22 -3 60 -8 85 -12 131
-18 324 -93 404 -156 94 -76 217 -228 206 -257 -1 -2 2 -7 7 -10 13 -9 43 -79
43 -100 0 -10 3 -21 7 -25 17 -17 28 -123 28 -271 -1 -101 -6 -160 -19 -210
-46 -177 -129 -309 -260 -409 -47 -36 -142 -89 -149 -84 -2 2 -11 -3 -20 -11
-10 -7 -17 -10 -17 -5 0 5 -4 4 -8 -1 -6 -9 -69 -33 -107 -40 -21 -5 -122 -24
-155 -31 -19 -4 -326 -8 -682 -10 l-648 -3 -1 45 c0 24 0 388 0 809 0 421 0
771 0 778 1 10 125 12 624 11 342 -1 640 -4 662 -8z m0 -2270 c126 -11 283
-41 300 -57 5 -5 16 -9 25 -9 25 0 177 -77 234 -117 195 -139 307 -316 345
-544 18 -109 12 -304 -13 -404 -19 -74 -30 -105 -37 -105 -5 0 -8 -3 -7 -7 4
-16 -16 -60 -57 -123 -45 -70 -179 -210 -201 -210 -8 0 -14 -4 -14 -10 0 -5
-47 -33 -105 -61 -133 -64 -254 -96 -435 -115 -56 -5 -1311 -6 -1317 0 -10 10
-5 1758 5 1765 13 8 1185 5 1277 -3z"/>
</g>
</svg>
